<svg id="Layer_1" data-name="Layer 1" xmlns="http://www.w3.org/2000/svg" viewBox="0 0 46.88 44.65"><defs><style>.cls-1{fill:#fff;}</style></defs><title>Artboard 1</title><path class="cls-1" d="M45.48,18.37v24a1,1,0,0,1-1,1h-42a1,1,0,0,1-1-1v-16a1,1,0,0,1,1-1h6a1,1,0,0,1,1,1v15h4v-23a1,1,0,0,1,1-1h6a1,1,0,0,1,1,1v23h4v-15a1,1,0,0,1,1-1h6a1,1,0,0,1,1,1v15h4v-23a1,1,0,0,1,1-1h6A1,1,0,0,1,45.48,18.37Zm-40,3a4,4,0,0,0,4-4,4,4,0,0,0-.56-2L15.46,8.8a3.86,3.86,0,0,0,4,0l6.55,6.55a4,4,0,0,0-.57,2,4,4,0,1,0,8,0,4,4,0,0,0-.56-2L39.46,8.8a4.09,4.09,0,1,0-1.41-1.42L31.5,13.93a3.92,3.92,0,0,0-4,0L20.92,7.38a3.94,3.94,0,0,0,.56-2,4,4,0,0,0-8,0,4,4,0,0,0,.57,2L7.5,13.93a4,4,0,0,0-2-.56,4,4,0,0,0,0,8Z"/></svg>