<?xml version="1.0" encoding="UTF-8"?>
<svg fill="#FFFFFF" width="100pt" height="100pt" version="1.1" viewBox="0 0 100 100" xmlns="http://www.w3.org/2000/svg">
 <path d="m29.922 23.559l5.5898 7.7891c-9.4492 1.3789-15.371 3.8906-16.609 5.5781 1.7891 2.4414 13.301 6.5781 31.102 6.5898 17.801 0.011719 29.32-4.1484 31.102-6.5898-1.2383-1.6914-7.1602-4.1992-16.602-5.5781l5.5898-7.7891c10.551 2.0586 19.762 6.1016 19.762 13.371h-0.003907c0 1.3086-0.32031 2.5938-0.92969 3.75-0.60938 0.97266-1.2773 1.9023-2 2.7891l-27.359 33h-0.003906c-1.8555 2.2266-2.875 5.0312-2.8789 7.9297v11.473c0 0.83594-0.33594 1.6367-0.92969 2.2266-0.59766 0.58984-1.4023 0.91406-2.2383 0.90234h-7c-1.7305 0-3.1328-1.4023-3.1328-3.1289v-11.43c0-2.8984-1.0195-5.707-2.8789-7.9297l-27.359-33c-0.72656-0.89062-1.3945-1.8203-2-2.793-0.61328-1.1523-0.93359-2.4414-0.92969-3.75-0.050782-7.3203 9.1602-11.359 19.711-13.41zm5.7578-8.5586c-0.65234 1.2891-0.53125 2.832 0.32031 4l10.859 15.238c0.72656 1.0156 1.8945 1.6172 3.1406 1.6172s2.4141-0.60156 3.1406-1.6172l10.859-15.238c0.84375-1.1758 0.95703-2.7266 0.29688-4.0156-0.66016-1.2852-1.9883-2.0977-3.4375-2.0938h-4.4492v-11.891h-12.809v11.93h-4.4922c-1.4414-0.007813-2.7656 0.79297-3.4297 2.0703z"/>
</svg>
