<?xml version="1.0" encoding="UTF-8"?>
<svg fill="#FFFFFF" width="100pt" height="100pt" version="1.1" viewBox="0 0 100 100" xmlns="http://www.w3.org/2000/svg">
 <path d="m54.199 50.398l12.801-12.699c1.1992-1.1992 1.1992-3.1016 0-4.1992-1.1992-1.1992-3.1016-1.1992-4.1992 0l-12.801 12.699-12.898-12.801c-1.1992-1.1992-3.1016-1.1992-4.1992 0-1.1992 1.1992-1.1992 3.1016 0 4.1992l12.801 12.699-12.805 12.805c-1.1992 1.1992-1.1992 3.1016 0 4.1992 0.60156 0.60156 1.3984 0.89844 2.1016 0.89844 0.80078 0 1.5-0.30078 2.1016-0.89844l12.898-12.699 12.801 12.699c0.60156 0.60156 1.3984 0.89844 2.1016 0.89844 0.80078 0 1.5-0.30078 2.1016-0.89844 1.1992-1.1992 1.1992-3.1016 0-4.1992z"/>
</svg>
