<?xml version="1.0" encoding="UTF-8"?>
<svg fill="#FFFFFF" width="100pt" height="100pt" version="1.1" viewBox="0 0 100 100" xmlns="http://www.w3.org/2000/svg">
 <path d="m50 0c-24.047 0-30.203 16-30.203 26.648v46.703c0 10.648 6.1562 26.648 30.203 26.648s30.203-16 30.203-26.648v-46.703c0-10.648-6.1562-26.648-30.203-26.648zm0 13.301c0.75 0 1.3594 0.60938 1.3594 1.3594v7.1406c1.9922 0.58594 3.4453 2.4297 3.4453 4.6094v7.3867c0 2.1797-1.4531 4.0234-3.4453 4.6094v12.582c0 0.75-0.60938 1.3594-1.3594 1.3594s-1.3594-0.60938-1.3594-1.3594v-12.582c-1.9922-0.58594-3.4453-2.4297-3.4453-4.6094v-7.3867c0-2.1797 1.4531-4.0234 3.4453-4.6094v-7.1406c0-0.75 0.60938-1.3594 1.3594-1.3594z"/>
</svg>
