<?xml version="1.0" encoding="UTF-8"?>
<svg fill="#FFFFFF" width="100pt" height="100pt" version="1.1" viewBox="0 0 100 100" xmlns="http://www.w3.org/2000/svg">
 <path d="m93.664 87.805c-0.070312-1.5547-0.59375-3.0156-1.7188-4.1406l-17.996-17.996c0.34375-0.48047 0.67188-0.95703 1.0078-1.4453 4.0312-6.0742 6.1328-13.555 5.9688-20.84-0.16406-7.3164-2.4922-14.715-6.8438-20.625-1.1797-1.6016-2.4297-3.1523-3.8359-4.5703l-0.085938-0.085938c-0.03125-0.03125-0.058594-0.058593-0.085937-0.078124-5.2266-5.1758-12.078-8.8672-19.355-10.086-1.9727-0.33203-3.9766-0.56641-5.9766-0.60547-1.8359-0.03125-3.6523 0.11719-5.4688 0.35938-1.8281 0.24219-3.625 0.56641-5.3906 1.0859-1.9219 0.56641-3.7969 1.3203-5.625 2.1562-3.3672 1.5625-6.4766 3.75-9.1992 6.2578-2.7812 2.5703-5.2031 5.6445-7.0391 8.9531-1.7578 3.1641-3.1055 6.6406-3.8359 10.195-0.73438 3.5547-1.0352 7.2344-0.68359 10.859 0.35156 3.6641 1.1133 7.2344 2.5312 10.633 0.78125 1.875 1.6328 3.7109 2.6953 5.4375 1.0859 1.7695 2.3516 3.4375 3.7031 5.0195 2.4609 2.8711 5.4609 5.3516 8.6797 7.3242 3.0938 1.8828 6.5625 3.3281 10.086 4.1992 7.0391 1.7383 14.727 1.4453 21.531-1.125 1.9062-0.72266 3.7891-1.543 5.5664-2.5469 1.1797-0.66406 2.2969-1.4141 3.3789-2.207l4.0312 4.0312c3.7891 3.7891 7.5781 7.5781 11.367 11.367l2.6172 2.6172c1.0625 1.0625 2.6367 1.7188 4.1406 1.7188 1.4375 0 3.1523-0.63281 4.1406-1.7188 1-1.1211 1.7617-2.582 1.6953-4.1445zm-49.543-60.871c-0.78125 0-1.5547 0.046875-2.3242 0.125-1.4922 0.24219-2.9609 0.64453-4.3672 1.1914-1.3477 0.61719-2.625 1.3594-3.8203 2.2344-1.1406 0.92969-2.1875 1.9727-3.1172 3.1172-0.87891 1.1914-1.6211 2.4688-2.2344 3.8203-0.55469 1.4062-0.94531 2.8711-1.1914 4.3672-0.085937 0.77344-0.125 1.543-0.125 2.3242-0.007812 2.1875-1.7891 3.8086-3.9062 3.9062-2.1016 0.097657-3.9141-1.8672-3.9062-3.9062 0.007813-2.832 0.46875-5.7422 1.4648-8.4062 0.85938-2.3125 1.9727-4.5 3.4766-6.4766 0.83984-1.0938 1.6992-2.1562 2.6953-3.1172 0.97656-0.9375 2.0508-1.7773 3.1445-2.5703 4.0938-2.9219 9.1992-4.4336 14.211-4.4453 2.1875-0.007812 3.8086 1.7969 3.9062 3.9062 0.089844 2.1328-1.8633 3.918-3.9062 3.9297z"/>
</svg>
