<?xml version="1.0" encoding="UTF-8"?>
<svg fill="#FFFFFF" width="100pt" height="100pt" version="1.1" viewBox="0 0 100 100" xmlns="http://www.w3.org/2000/svg">
 <path d="m72.707 4.3047h-45.414c-10.449 0-18.922 8.4688-18.922 18.918v33.141c0 10.449 8.4727 18.922 18.922 18.922h10.922l11.785 20.41 11.781-20.41h10.922c10.453 0 18.922-8.4727 18.922-18.922l0.003906-33.141c0-10.449-8.4727-18.918-18.922-18.918zm-36.633 51.844c0 2.9141-2.3594 5.2734-5.2773 5.2734-2.9141 0-5.2773-2.3594-5.2773-5.2734l0.003907-15.996c0-2.918 2.3633-5.2734 5.2773-5.2734 2.9141 0 5.2773 2.3555 5.2773 5.2734zm38.406-2.7852c0 4.4531-3.6133 8.0586-8.0625 8.0586h-20.422c-4.457 0-8.0625-3.6055-8.0625-8.0586v-10.426c0-3.9023 2.7734-7.1562 6.457-7.9023 3.5195-5.1758 5.1758-9.75 5.1758-9.75s0.47656-2.0195 1.2891-4.3281c0.085937-0.35156 0.21094-0.69141 0.37109-1.0078 0.76953-1.5234 2.3477-2.5664 4.1719-2.5664 2.168 0 3.9922 1.4727 4.5195 3.4805 0.058593 0.21875 0.10156 0.4375 0.125 0.66797 0.86328 5.2734-0.96484 10.371-2.3828 13.352h8.7539c4.4531 0 8.0625 3.6055 8.0625 8.0586z"/>
</svg>
