<svg xmlns="http://www.w3.org/2000/svg" width="1586.8" height="649.2" viewBox="0 0 1586.8 649.2"><title>brightree-logo</title><path d="M513.5,657.5a32,32,0,0,0-6.2-.9c-17.7-.2-35.2-2.2-52-8.2-2.3-.8-4.6-1.8-7.4-3l8.2-31.3c2.2.8,3.9,1.4,5.5,2.1,15.4,6.6,31.6,11,48.3,11a148.82,148.82,0,0,0,32.6-3.7c17.4-3.9,27.6-15.6,29.8-33.3,1.3-10.2,1.2-20.6,1.5-30.9,0-1.1-.7-3.1-1.3-3.2-1.2-.2-3.2.2-3.9,1.1-10.5,13.5-25.5,17.7-41.1,19.9a120,120,0,0,1-49.5-3.2c-23.1-6.6-38.4-21.7-45.2-44.6-9.2-31-10.1-62.4-1.1-93.5,10.4-36.1,35.5-56.8,72.1-62.7,33.6-5.5,67-2.5,99.8,6.8,4,1.1,5.4,3,5.4,7.3-.1,64.2,0,128.3-.2,192.5-.1,19.3-3.9,37.8-17.7,52.7-12,12.9-27.4,19.1-44.3,22.1-7.3,1.3-14.9,1.5-22.3,2.3a31.48,31.48,0,0,0-4.2.9l-6.8-.2Zm60.2-201c0-15.2-.2-30.3.1-45.5.1-4.3-1.5-5.8-5.3-6.7a156.19,156.19,0,0,0-49.6-3.8c-22.3,2.1-38.6,13.4-47.6,34.3-5.3,12.5-6.9,25.6-7.1,39-.3,15.7.9,31.3,7,46,5.3,12.7,13.9,21.8,27.4,25.7,10.6,3.1,21.3,3.4,32.1,2,23.3-3.1,43-25.6,43-49.1V456.5Z" transform="translate(-7.6 -8.5)" fill="#12507e"/><path d="M7.6,308.5h35V315q0,39.9.1,80c0,1.9,1,3.8,1.6,5.7,1.6-1.1,3.7-2,4.7-3.5,9-13.1,21.8-20.4,36.8-24a95.51,95.51,0,0,1,58.8,4c19,7.6,32,21.6,38.8,40.7,11.6,32.6,12.7,66,2.5,99-10.2,33.3-34.2,53-67.8,60.1-34.3,7.2-68.5,4.5-101.9-6.6a73.36,73.36,0,0,1-8.6-3.9ZM155.1,473.2c-1.4-10.3-2.1-20.9-4.4-31-7.6-33-34.7-49.3-66.2-39.8C66,408,54.4,421.5,46.7,438.5c-2,4.3-3.8,9.1-3.8,13.7-.3,28.8-.1,57.6-.3,86.5,0,4.2,1.7,5.8,5.3,6.9,15.8,4.8,32,5.9,48.4,5.1,24.6-1.2,44.8-16.6,52.6-40C152.9,498.5,154.2,486.1,155.1,473.2Z" transform="translate(-7.6 -8.5)" fill="#12507e"/><path d="M1594.4,547.5c-.7,2-1.5,4-2.2,6a36.21,36.21,0,0,1-43.6,22.5c-18.2-4.9-29.2-22.6-26-42a35.6,35.6,0,0,1,38-29.5c15.9,1.3,26.5,9.5,31.9,24.6.5,1.5,1.3,3,1.9,4.5v13.9Zm-5.8-6.9a30.18,30.18,0,0,0-29.8-30.6h-.4a30.71,30.71,0,0,0-31,30.4v.2c-.1,16.7,14.1,31,30.7,31a30.42,30.42,0,0,0,30.5-31Z" transform="translate(-7.6 -8.5)" fill="#12507e"/><path d="M689.5,577H655V309.1h34.3v92.7c3.1-1.5,5.4-1.9,6.7-3.3,20-22.4,45.2-30.6,74.5-27.9a152.83,152.83,0,0,1,19.2,2.6c19.8,4.4,32.2,17.5,37.1,36.5a180.41,180.41,0,0,1,5.8,41.3c.8,40.3.3,80.6.3,120.9,0,1.6-.2,3.3-.3,5.1H798.1c-.1-2.3-.3-4.5-.3-6.6,0-35.7.1-71.3-.1-107a165.69,165.69,0,0,0-2.2-26.3c-3.7-22.1-14.8-32.6-36.8-35.6-29.8-4-59,14.4-68,43.1a32.64,32.64,0,0,0-1.3,9.3q-.15,58.2-.1,116.5l.2,6.6Z" transform="translate(-7.6 -8.5)" fill="#12507e"/><path d="M1158.9,481.2c-.1,28.1,8.8,59.9,41.1,67.8a138.9,138.9,0,0,0,34,3.6c19-.2,28.2-4.1,50.2-17.9l13.5,26.8c-7.6,3.8-14.7,8.1-22.3,11.1a142.89,142.89,0,0,1-86.2,6.4c-31.8-7.4-52.1-27.8-60.7-59.2-8.5-31.1-8.6-62.3,2.2-92.8,11.3-32,34.9-49.7,68-55.2a131.5,131.5,0,0,1,53,1.8c28.5,6.7,48.7,28.7,51.3,58,1.3,14.3.2,28.9.5,43.3.1,5.7-2.3,6.6-7.4,6.6-43.6-.2-87.3-.1-130.9-.1l-6.3-.2Zm1.7-25.9a6.12,6.12,0,0,0,1.2.5c35.4.1,70.9.1,106.3,0,1.1,0,3-2,3.1-3.1a117.06,117.06,0,0,0-.6-11.9c-1.7-21.7-13.5-35.6-35-39.5-8.5-1.5-17.5-1.4-26.2-.8-29.2,2.1-49.9,25.5-48.8,54.8Z" transform="translate(-7.6 -8.5)" fill="#12507e"/><path d="M1505.4,481.4H1361.8c-.7,40.1,16.2,65.2,51,70.2,21.2,3,41.9,1.9,61.1-8.7,4.2-2.3,8.2-5.1,12.9-8,4,8,8.2,16.2,12.1,24.6.3.8-1.4,3-2.7,3.9-11.5,7.7-24.2,12.5-37.6,15.4-23.1,5-46.2,5.8-69.2-.3-28.6-7.6-47.9-25.7-56.8-53.8-10.2-32.5-10.5-65.3.7-97.6,11.1-31.9,34.7-49.5,67.5-55.1a133.17,133.17,0,0,1,52.6,1.5c26.1,5.9,42.8,22,50.1,47.5C1509.2,440.5,1507.6,460.7,1505.4,481.4Zm-142.1-25.8H1474c-.5-6.7-.6-13-1.5-19.1-2.7-18.8-14-31.4-32.7-34.9a111.89,111.89,0,0,0-27.7-1.1C1382.6,402.6,1362.3,425.7,1363.3,455.6Z" transform="translate(-7.6 -8.5)" fill="#12507e"/><path d="M983.1,375.7v29.4c-1.8.1-3.6.2-5.4.2-16.5,0-33,.2-49.5-.1-4.8-.1-5.8,1.6-5.8,6,.2,33.6-.2,67.3.3,101a104.85,104.85,0,0,0,3.8,25.5c2.5,9.5,9.8,14.2,19.6,15,10.7.9,20.8-1.3,30.8-4.6,2.5-.8,5-1.6,8.3-2.7l8,24.5c-12.1,5.5-24.5,9.8-37.6,11.2-9.7,1.1-19.7,1.8-29.3.7-21.9-2.7-32.8-13.8-36.5-36a147.39,147.39,0,0,1-2.1-24.8q-.3-54.75,0-109.4c0-5.3-1.6-6.5-6.5-6.3-9,.4-18,.1-27.4.1V375.9h33.6V335.1l35.1-9.2v5.8c0,13,.1,26-.1,39-.1,3.9,1,5.1,5,5.1C945.8,375.6,964.1,375.7,983.1,375.7Z" transform="translate(-7.6 -8.5)" fill="#12507e"/><path d="M1010.9,376h24c1.8,7.3,3.6,14.5,5.6,21.7.5,1.8,1.7,3.3,2.6,5,1.6-1.2,3.6-2.1,4.7-3.7,8-11.6,17.2-21.9,31.4-25.6s28.6-2.2,43.3,2c-2.1,10.5-4.1,20.8-6.4,30.9-.2.8-3.2,1.8-4.6,1.5-9.4-2-18.8-3.7-28.6-2.6-21.2,2.5-37.2,19.9-37.2,41.2V577h-34.6l-.2-201Z" transform="translate(-7.6 -8.5)" fill="#12507e"/><path d="M226.9,375.7c7.5,0,14.6-.1,21.7.1,1,0,2.5,1.8,2.8,3.1,1.9,6.7,3.5,13.5,5.4,20.2.4,1.3,1.6,3.3,2.2,3.2a6,6,0,0,0,3.8-2.4c3.1-3.9,5.9-8.1,9.1-11.9,13.7-16.1,31.8-18.6,51.4-16.1,4.9.6,9.7,1.9,15,3-2.1,10.6-4.2,20.7-6.2,30.7-.6,3.2-2.8,2.6-5,2-9.4-2.3-18.7-3.9-28.6-2.7-21.1,2.5-37.1,19.9-37.1,41.3V576.7H226.8v-201Z" transform="translate(-7.6 -8.5)" fill="#12507e"/><path d="M360,376h34V576.9H360Z" transform="translate(-7.6 -8.5)" fill="#12507e"/><path d="M1548.3,544.5v16.1l-5.4.3V522.1c6.7,0,13.3-.4,19.9.1,5.7.5,8.8,4,9.4,8.8s-1.9,8.9-7.1,11.3l-2,.9,11.6,16.7c-4.1,1.7-7,1.7-9-2.3-1.4-2.8-3.2-5.4-4.8-8.2C1558.1,544.9,1554.2,543.2,1548.3,544.5Zm.3-6c4.3,0,8.4.5,12.2-.2,1.9-.4,4.2-2.9,4.6-4.8.4-1.6-1.4-5.1-2.7-5.4a36.12,36.12,0,0,0-13.1-.8c-.9.1-1,5.8-1.3,8.9a8.52,8.52,0,0,0,.3,2.3Z" transform="translate(-7.6 -8.5)" fill="#12507e"/><polygon points="368.1 195.1 184.4 187.7 173 0 371.3 0.8 368.1 195.1" fill="#e87425"/><polygon points="549.5 97.7 418.1 104.3 415.7 231.4 541.5 227.6 549.5 97.7" fill="#0090be"/><polygon points="404.4 318.5 341.1 321.1 342.4 256.5 404.2 258 404.4 318.5" fill="#b5be34"/></svg>